# xmcd
#
# Track frame offsets: 
#        150
#        16325
#        31173
#        46695
#        62844
#        75596
#        89176
#        104165
#        122708
#        140231
#        154380
#        173786
#        189128
#
# Disc length: 2810 seconds
#
# Revision: 0
# Processed by: cddbd v1.5.1PL0 Copyright (c) Steve Scherf et al.
# Submitted via: ExactAudioCopy v0.95a5
#
DISCID=af0af80d
DTITLE=Brian Keane - I Ain't Even Lonely
DYEAR=2005
DGENRE=Country
TTITLE0=I Ain't Even Lonely
TTITLE1=Go So Wrong
TTITLE2=I Miss You
TTITLE3=It's Been a Long Day
TTITLE4=Mexico
TTITLE5=Hometown
TTITLE6=Piece of Me
TTITLE7=Anywhere I Lay My Head
TTITLE8=Your Whining Will Be Gone
TTITLE9=Angeline
TTITLE10=Carry Me
TTITLE11=You've Gone
TTITLE12=Odysseus
EXTD=
EXTT0=
EXTT1=
EXTT2=
EXTT3=
EXTT4=
EXTT5=
EXTT6=
EXTT7=
EXTT8=
EXTT9=
EXTT10=
EXTT11=
EXTT12=
PLAYORDER=
